<?xml version="1.0" encoding="UTF-8"?>
<svg version="1.1" xmlns="http://www.w3.org/2000/svg" width="500" height="500">
<path d="M0 0 C165 0 330 0 500 0 C500 165 500 330 500 500 C335 500 170 500 0 500 C0 335 0 170 0 0 Z " fill="#000000" transform="translate(0,0)"/>
<path d="M0 0 C6.18770582 -0.095035 12.36889575 -0.0673639 18.55615234 0.04589844 C19.65612549 0.06475098 19.65612549 0.06475098 20.77832031 0.08398438 C44.54306138 0.62902173 67.98445216 6.0935004 89.55615234 16.04589844 C90.90090695 16.64292311 92.24595283 17.23929217 93.59130859 17.83496094 C108.4437366 24.54692294 121.75156173 32.97609309 134.55615234 43.04589844 C135.49845703 43.78324219 136.44076172 44.52058594 137.41162109 45.28027344 C145.44942157 51.63628305 145.44942157 51.63628305 147.55615234 54.04589844 C147.55615234 54.70589844 147.55615234 55.36589844 147.55615234 56.04589844 C148.12978516 56.284375 148.70341797 56.52285156 149.29443359 56.76855469 C153.94169597 59.39317437 157.12257962 64.03637158 160.55615234 68.04589844 C161.29349609 68.89667969 162.03083984 69.74746094 162.79052734 70.62402344 C181.72001451 93.04405434 195.19962317 119.70077073 202.55615234 148.04589844 C202.85263672 149.16351563 203.14912109 150.28113281 203.45458984 151.43261719 C207.11471438 166.16371249 207.96448233 180.87824803 207.93115234 195.98339844 C207.93127319 196.831521 207.93139404 197.67964355 207.93151855 198.5534668 C207.8916133 218.31863165 205.26411706 237.0916021 199.55615234 256.04589844 C199.32283203 256.92632812 199.08951172 257.80675781 198.84912109 258.71386719 C196.90300294 265.87239537 193.78974553 272.38806938 190.55615234 279.04589844 C189.95034842 280.33219897 189.34488958 281.61866207 188.73974609 282.90527344 C179.50195116 302.25986354 166.6750355 319.19781828 151.89013672 334.64892578 C150.75256561 335.8402109 149.6293701 337.04519608 148.50927734 338.25292969 C128.71863466 359.01618943 102.16122442 373.6717154 75.23583984 382.78417969 C73.15274641 383.49844633 71.07821331 384.24435835 69.04443359 385.08886719 C65.72366116 386.36608735 62.31939298 387.20613265 58.86865234 388.04589844 C57.79973755 388.30753784 57.79973755 388.30753784 56.70922852 388.57446289 C54.6597161 389.07156087 52.60850415 389.56067284 50.55615234 390.04589844 C49.62802734 390.26632812 48.69990234 390.48675781 47.74365234 390.71386719 C35.69533383 393.34943686 23.32522047 393.20759775 11.05419922 393.17626953 C8.55999679 393.1709067 6.06597437 393.17624944 3.57177734 393.18261719 C-8.89918157 393.18965436 -21.10533882 392.87391517 -33.31884766 390.10839844 C-34.10775391 389.93888672 -34.89666016 389.769375 -35.70947266 389.59472656 C-40.34396622 388.58237456 -44.89295883 387.39185828 -49.44384766 386.04589844 C-50.25208984 385.82289063 -51.06033203 385.59988281 -51.89306641 385.37011719 C-61.75960911 382.56340434 -70.98299754 378.31297231 -80.25634766 373.98339844 C-81.31414429 373.49093628 -81.31414429 373.49093628 -82.39331055 372.98852539 C-102.02879784 363.71383184 -118.72619097 349.83765868 -134.44384766 335.04589844 C-135.11416016 334.418125 -135.78447266 333.79035156 -136.47509766 333.14355469 C-141.24870635 328.53268266 -145.62268173 323.47493159 -149.44384766 318.04589844 C-149.44384766 317.38589844 -149.44384766 316.72589844 -149.44384766 316.04589844 C-150.10384766 316.04589844 -150.76384766 316.04589844 -151.44384766 316.04589844 C-153.06555743 313.91223113 -154.54773473 311.78840871 -156.00634766 309.54589844 C-156.44889893 308.87099365 -156.8914502 308.19608887 -157.34741211 307.50073242 C-165.30793393 295.21023152 -171.86272152 282.57501572 -177.44384766 269.04589844 C-177.83314453 268.12035156 -178.22244141 267.19480469 -178.62353516 266.24121094 C-182.93404575 255.78237516 -186.13886712 245.32471716 -188.06347656 234.15942383 C-188.33137095 232.67087329 -188.63381906 231.18833631 -188.9609375 229.71166992 C-190.93197879 219.95086877 -190.81601709 210.12996191 -190.81445312 200.21362305 C-190.81879435 197.14606828 -190.85511638 194.07999379 -190.89306641 191.01269531 C-190.96842579 177.59406937 -189.4907408 165.10685611 -186.44384766 152.04589844 C-186.15823975 150.80501465 -185.87263184 149.56413086 -185.57836914 148.28564453 C-184.92013867 145.52130712 -184.2034824 142.78392258 -183.44384766 140.04589844 C-183.20923828 139.17964844 -182.97462891 138.31339844 -182.73291016 137.42089844 C-181.1089203 131.69327831 -178.9752467 126.4251214 -176.44384766 121.04589844 C-175.86995445 119.77420326 -175.29713336 118.50202399 -174.72509766 117.22949219 C-168.35232776 103.19578763 -160.855207 90.28066559 -151.44384766 78.04589844 C-150.81994141 77.22863281 -150.19603516 76.41136719 -149.55322266 75.56933594 C-142.01571684 65.91765166 -133.86390394 56.88754957 -124.44384766 49.04589844 C-123.52474609 48.22734375 -122.60564453 47.40878906 -121.65869141 46.56542969 C-103.69703385 30.6635429 -81.29974707 17.416926 -58.44384766 10.04589844 C-57.20634766 9.63082031 -55.96884766 9.21574219 -54.69384766 8.78808594 C-37.00479793 3.08214714 -18.55093611 0.34840919 0 0 Z " fill="#020202" transform="translate(244.44384765625,48.9541015625)"/>
<path d="M0 0 C6.18770582 -0.095035 12.36889575 -0.0673639 18.55615234 0.04589844 C19.65612549 0.06475098 19.65612549 0.06475098 20.77832031 0.08398438 C44.54306138 0.62902173 67.98445216 6.0935004 89.55615234 16.04589844 C90.90090695 16.64292311 92.24595283 17.23929217 93.59130859 17.83496094 C108.4437366 24.54692294 121.75156173 32.97609309 134.55615234 43.04589844 C135.49845703 43.78324219 136.44076172 44.52058594 137.41162109 45.28027344 C145.44942157 51.63628305 145.44942157 51.63628305 147.55615234 54.04589844 C147.55615234 54.70589844 147.55615234 55.36589844 147.55615234 56.04589844 C148.12978516 56.284375 148.70341797 56.52285156 149.29443359 56.76855469 C153.94169597 59.39317437 157.12257962 64.03637158 160.55615234 68.04589844 C161.29349609 68.89667969 162.03083984 69.74746094 162.79052734 70.62402344 C181.72001451 93.04405434 195.19962317 119.70077073 202.55615234 148.04589844 C202.85263672 149.16351563 203.14912109 150.28113281 203.45458984 151.43261719 C207.11471438 166.16371249 207.96448233 180.87824803 207.93115234 195.98339844 C207.93127319 196.831521 207.93139404 197.67964355 207.93151855 198.5534668 C207.8916133 218.31863165 205.26411706 237.0916021 199.55615234 256.04589844 C199.32283203 256.92632812 199.08951172 257.80675781 198.84912109 258.71386719 C196.90300294 265.87239537 193.78974553 272.38806938 190.55615234 279.04589844 C189.95034842 280.33219897 189.34488958 281.61866207 188.73974609 282.90527344 C179.50195116 302.25986354 166.6750355 319.19781828 151.89013672 334.64892578 C150.75256561 335.8402109 149.6293701 337.04519608 148.50927734 338.25292969 C128.71863466 359.01618943 102.16122442 373.6717154 75.23583984 382.78417969 C73.15274641 383.49844633 71.07821331 384.24435835 69.04443359 385.08886719 C65.72366116 386.36608735 62.31939298 387.20613265 58.86865234 388.04589844 C57.79973755 388.30753784 57.79973755 388.30753784 56.70922852 388.57446289 C54.6597161 389.07156087 52.60850415 389.56067284 50.55615234 390.04589844 C49.62802734 390.26632812 48.69990234 390.48675781 47.74365234 390.71386719 C35.69533383 393.34943686 23.32522047 393.20759775 11.05419922 393.17626953 C8.55999679 393.1709067 6.06597437 393.17624944 3.57177734 393.18261719 C-8.89918157 393.18965436 -21.10533882 392.87391517 -33.31884766 390.10839844 C-34.10775391 389.93888672 -34.89666016 389.769375 -35.70947266 389.59472656 C-40.34396622 388.58237456 -44.89295883 387.39185828 -49.44384766 386.04589844 C-50.25208984 385.82289063 -51.06033203 385.59988281 -51.89306641 385.37011719 C-61.75960911 382.56340434 -70.98299754 378.31297231 -80.25634766 373.98339844 C-81.31414429 373.49093628 -81.31414429 373.49093628 -82.39331055 372.98852539 C-102.02879784 363.71383184 -118.72619097 349.83765868 -134.44384766 335.04589844 C-135.11416016 334.418125 -135.78447266 333.79035156 -136.47509766 333.14355469 C-141.24870635 328.53268266 -145.62268173 323.47493159 -149.44384766 318.04589844 C-149.44384766 317.38589844 -149.44384766 316.72589844 -149.44384766 316.04589844 C-150.10384766 316.04589844 -150.76384766 316.04589844 -151.44384766 316.04589844 C-153.06555743 313.91223113 -154.54773473 311.78840871 -156.00634766 309.54589844 C-156.44889893 308.87099365 -156.8914502 308.19608887 -157.34741211 307.50073242 C-165.30793393 295.21023152 -171.86272152 282.57501572 -177.44384766 269.04589844 C-177.83314453 268.12035156 -178.22244141 267.19480469 -178.62353516 266.24121094 C-182.93404575 255.78237516 -186.13886712 245.32471716 -188.06347656 234.15942383 C-188.33137095 232.67087329 -188.63381906 231.18833631 -188.9609375 229.71166992 C-190.93197879 219.95086877 -190.81601709 210.12996191 -190.81445312 200.21362305 C-190.81879435 197.14606828 -190.85511638 194.07999379 -190.89306641 191.01269531 C-190.96842579 177.59406937 -189.4907408 165.10685611 -186.44384766 152.04589844 C-186.15823975 150.80501465 -185.87263184 149.56413086 -185.57836914 148.28564453 C-184.92013867 145.52130712 -184.2034824 142.78392258 -183.44384766 140.04589844 C-183.20923828 139.17964844 -182.97462891 138.31339844 -182.73291016 137.42089844 C-181.1089203 131.69327831 -178.9752467 126.4251214 -176.44384766 121.04589844 C-175.86995445 119.77420326 -175.29713336 118.50202399 -174.72509766 117.22949219 C-168.35232776 103.19578763 -160.855207 90.28066559 -151.44384766 78.04589844 C-150.81994141 77.22863281 -150.19603516 76.41136719 -149.55322266 75.56933594 C-142.01571684 65.91765166 -133.86390394 56.88754957 -124.44384766 49.04589844 C-123.52474609 48.22734375 -122.60564453 47.40878906 -121.65869141 46.56542969 C-103.69703385 30.6635429 -81.29974707 17.416926 -58.44384766 10.04589844 C-57.20634766 9.63082031 -55.96884766 9.21574219 -54.69384766 8.78808594 C-37.00479793 3.08214714 -18.55093611 0.34840919 0 0 Z M-34.67822266 16.26464844 C-37.03198483 16.92955301 -39.35836658 17.46988052 -41.74853516 17.97949219 C-63.15396804 22.67467724 -82.58235395 32.57497281 -100.44384766 45.04589844 C-102.06226563 46.17318359 -102.06226563 46.17318359 -103.71337891 47.32324219 C-111.50538069 52.97065632 -118.52988732 59.37394891 -125.44384766 66.04589844 C-126.01006836 66.5829541 -126.57628906 67.12000977 -127.15966797 67.67333984 C-128.6270352 69.09127907 -130.04025915 70.56479832 -131.44384766 72.04589844 C-131.44384766 72.70589844 -131.44384766 73.36589844 -131.44384766 74.04589844 C-132.43384766 74.37589844 -133.42384766 74.70589844 -134.44384766 75.04589844 C-148.51951328 89.77179861 -159.66086025 110.02110508 -166.44384766 129.04589844 C-167.21728516 130.80933594 -167.21728516 130.80933594 -168.00634766 132.60839844 C-171.33825548 140.57600411 -173.71758748 148.69929222 -175.63134766 157.10839844 C-175.79820068 157.82745361 -175.96505371 158.54650879 -176.13696289 159.28735352 C-178.58969293 170.48920492 -178.63027079 181.76485617 -178.62915039 193.17724609 C-178.63132515 195.64536102 -178.64951 198.11301904 -178.66845703 200.58105469 C-178.72403862 215.59005136 -177.48421996 230.07224981 -173.50634766 244.60839844 C-173.20841309 245.70192627 -172.91047852 246.7954541 -172.60351562 247.92211914 C-167.11849499 267.01267996 -158.09153829 286.59559454 -145.44384766 302.04589844 C-144.25082031 303.61210938 -144.25082031 303.61210938 -143.03369141 305.20996094 C-128.89829978 323.73081847 -111.4275248 339.06665713 -91.44384766 351.04589844 C-89.89503906 351.99916016 -89.89503906 351.99916016 -88.31494141 352.97167969 C-78.77108925 358.66702599 -68.78805675 363.01002995 -58.44384766 367.04589844 C-57.6144165 367.37952393 -56.78498535 367.71314941 -55.93041992 368.05688477 C-48.36531498 370.97994042 -40.69946119 372.66272627 -32.75634766 374.23339844 C-31.48984375 374.49314453 -30.22333984 374.75289063 -28.91845703 375.02050781 C-17.20890426 377.38935095 -6.05444187 378.31820627 5.86865234 378.35839844 C6.63650055 378.36134918 7.40434875 378.36429993 8.19546509 378.36734009 C25.4670788 378.38235401 43.39172577 377.60537589 59.55615234 371.04589844 C61.51363446 370.57231405 63.47118586 370.09893739 65.43115234 369.63574219 C68.73657297 368.71824492 71.85721374 367.40982311 75.02099609 366.09277344 C76.58411356 365.44729504 78.15822966 364.82696123 79.74755859 364.24902344 C93.41311096 359.2105937 107.78455273 351.66854232 119.55615234 343.04589844 C119.55615234 342.38589844 119.55615234 341.72589844 119.55615234 341.04589844 C120.21615234 340.86027344 120.87615234 340.67464844 121.55615234 340.48339844 C125.14488014 338.7637997 127.6410219 336.50749713 130.57177734 333.84667969 C132.25955607 332.31505371 133.97497467 330.85680943 135.74365234 329.42089844 C146.09713137 320.67796059 154.70000903 310.02315811 162.55615234 299.04589844 C163.08281494 298.32950195 163.60947754 297.61310547 164.15209961 296.875 C168.74940764 290.50763608 172.53070606 283.90041969 176.11865234 276.92089844 C176.96617065 275.28254028 176.96617065 275.28254028 177.83081055 273.61108398 C182.07726261 265.27249568 185.64289146 256.93730061 188.55615234 248.04589844 C188.90291016 247.05203125 189.24966797 246.05816406 189.60693359 245.03417969 C190.61810841 241.85085155 191.36509366 238.68840417 192.05615234 235.42089844 C192.41193359 233.761875 192.41193359 233.761875 192.77490234 232.06933594 C193.03607518 230.72833716 193.29640685 229.38717442 193.55615234 228.04589844 C193.81755005 226.82435059 193.81755005 226.82435059 194.08422852 225.578125 C195.93167333 216.08736246 195.90938903 206.67531827 195.86865234 197.04589844 C195.86641663 195.74664429 195.86641663 195.74664429 195.86413574 194.42114258 C195.82487662 181.7539233 195.41874109 169.43708272 192.55615234 157.04589844 C192.27771484 155.77617187 191.99927734 154.50644531 191.71240234 153.19824219 C185.30190461 126.92072778 173.13462616 101.66182913 155.55615234 81.04589844 C154.67992777 79.98701474 153.80500746 78.9270509 152.93115234 77.86621094 C142.67494542 65.47561879 131.54279356 55.52225253 118.55615234 46.04589844 C117.77224121 45.47000977 116.98833008 44.89412109 116.18066406 44.30078125 C86.07379802 22.64381777 48.84845576 11.5363307 11.93115234 11.79589844 C10.89565247 11.80005264 10.89565247 11.80005264 9.8392334 11.80429077 C-5.07095571 11.8740468 -20.25530989 12.09198185 -34.67822266 16.26464844 Z " fill="#F8F8F7" transform="translate(244.44384765625,48.9541015625)"/>
<path d="M0 0 C6.08722746 -0.04934154 12.1743392 -0.08569167 18.26171875 -0.10986328 C20.33367947 -0.11993712 22.40562593 -0.13359666 24.47753906 -0.15087891 C27.45120764 -0.17506664 30.4246887 -0.18646908 33.3984375 -0.1953125 C34.32868744 -0.20563507 35.25893738 -0.21595764 36.21737671 -0.22659302 C37.07811798 -0.22674408 37.93885925 -0.22689514 38.82568359 -0.22705078 C39.58513275 -0.231492 40.34458191 -0.23593323 41.12704468 -0.24050903 C43 0 43 0 45 2 C45.1953125 4.3828125 45.1953125 4.3828125 45.125 7.125 C45.10695312 8.03507813 45.08890625 8.94515625 45.0703125 9.8828125 C45.04710937 10.58148438 45.02390625 11.28015625 45 12 C45.66 12 46.32 12 47 12 C47.226875 11.484375 47.45375 10.96875 47.6875 10.4375 C51.35472321 3.62694261 51.35472321 3.62694261 54 1 C56.92935246 0.28804443 58.77267776 0.07337833 61.69262695 0.15771484 C62.83024475 0.14895325 62.83024475 0.14895325 63.99084473 0.14001465 C66.49131154 0.12962006 68.98818008 0.16941574 71.48828125 0.2109375 C73.23316333 0.216384 74.9780556 0.21916123 76.72294617 0.21939087 C80.37920172 0.22711649 84.03425497 0.25806342 87.69018555 0.30712891 C92.36073335 0.36925399 97.03012541 0.38796519 101.70104694 0.39092064 C105.3052436 0.39563915 108.90919784 0.41647571 112.51329613 0.44279861 C114.23434676 0.45480558 115.95542364 0.46353812 117.67650795 0.468853 C120.09117877 0.48015813 122.5047909 0.51140588 124.91918945 0.54833984 C125.97232582 0.54865707 125.97232582 0.54865707 127.04673767 0.54898071 C132.23689793 0.65954108 136.31440902 1.96370536 141 4 C142.03125 4.43699219 143.0625 4.87398437 144.125 5.32421875 C152.96860014 9.51771936 160.4560103 15.09378018 165 24 C165.57763591 26.99679485 165.86457941 29.95303683 166 33 C166.99 33 167.98 33 169 33 C169 22.44 169 11.88 169 1 C176.25975431 0.90797495 183.51747006 0.82839031 190.77734375 0.78027344 C193.24486158 0.76020705 195.71233215 0.73294756 198.1796875 0.69824219 C201.73449393 0.64950694 205.28866944 0.62698061 208.84375 0.609375 C209.93989624 0.58872986 211.03604248 0.56808472 212.16540527 0.54681396 C222.44830329 0.54382811 228.61261099 3.97993207 236.078125 11.0078125 C240.28568243 15.36930496 241.19518251 18.94221083 241.5 24.875 C241.30006203 31.89890791 239.10853047 36.00707604 234.109375 40.8203125 C232.44491452 42.27502389 230.75883191 43.66186852 229 45 C229.58292439 48.84687233 230.70768306 51.60306335 232.6875 54.94140625 C233.22117187 55.85470703 233.75484375 56.76800781 234.3046875 57.70898438 C235.14386719 59.12147461 235.14386719 59.12147461 236 60.5625 C237.10862188 62.43617315 238.21297207 64.31238207 239.3125 66.19140625 C239.80363281 67.01842041 240.29476562 67.84543457 240.80078125 68.69750977 C241.91601912 70.83875739 242.63566966 72.61832243 243 75 C242 76 242 76 239.10838318 76.12025452 C237.81376663 76.11803391 236.51915009 76.11581329 235.18530273 76.11352539 C234.11706772 76.11374443 234.11706772 76.11374443 233.0272522 76.1139679 C230.66266888 76.1132687 228.29816339 76.10547606 225.93359375 76.09765625 C224.29834537 76.09579209 222.66309643 76.09436818 221.02784729 76.09336853 C216.71565215 76.08954318 212.40349048 76.07971275 208.09130859 76.06866455 C202.9218032 76.05665627 197.75228664 76.05204827 192.5827713 76.04621124 C184.72182423 76.036501 176.86095065 76.01734458 169 76 C169 65.44 169 54.88 169 44 C166.78323368 44.8182576 166.78323368 44.8182576 166.24609375 47.15234375 C165.97925781 48.07144531 165.71242188 48.99054688 165.4375 49.9375 C162.38819743 58.6871779 155.35471622 66.76608192 147 71 C137.79443029 74.61340119 129.74566845 76.15411466 119.921875 76.1328125 C118.95469543 76.13376923 117.98751587 76.13472595 116.99102783 76.13571167 C114.95365331 76.13639056 112.91627659 76.13455659 110.87890625 76.13037109 C107.74734709 76.12499545 104.61592985 76.13033784 101.484375 76.13671875 C99.50520802 76.13605837 97.52604112 76.13477805 95.546875 76.1328125 C94.1344754 76.13584885 94.1344754 76.13584885 92.69354248 76.13894653 C91.39649384 76.13421829 91.39649384 76.13421829 90.07324219 76.12939453 C88.92671173 76.12820114 88.92671173 76.12820114 87.75701904 76.12698364 C86 76 86 76 85 75 C84.90570658 72.82194281 84.88257462 70.6407872 84.88647461 68.46069336 C84.88632858 67.77779739 84.88618256 67.09490143 84.8860321 66.39131165 C84.88673124 64.12412386 84.8945236 61.85701726 84.90234375 59.58984375 C84.90420793 58.02185613 84.90563183 56.45386793 84.90663147 54.88587952 C84.91045666 50.75123497 84.92028694 46.61662534 84.93133545 42.48199463 C84.94154956 38.26599602 84.94612909 34.04999178 84.95117188 29.83398438 C84.96190921 21.55597353 84.97898564 13.2779911 85 5 C82.51979144 7.39472665 80.86492494 9.70584768 79.15234375 12.7109375 C78.62962891 13.62617188 78.10691406 14.54140625 77.56835938 15.484375 C77.03017578 16.43828125 76.49199219 17.3921875 75.9375 18.375 C75.39544922 19.32117188 74.85339844 20.26734375 74.29492188 21.2421875 C71.91480424 25.43166526 69.71198041 29.48673439 68 34 C67.34 34 66.68 34 66 34 C65.81775879 34.87374268 65.81775879 34.87374268 65.63183594 35.76513672 C64.98322492 38.05933505 64.12656928 39.72658762 62.890625 41.7578125 C62.46813477 42.46091553 62.04564453 43.16401855 61.61035156 43.88842773 C61.16143555 44.62649658 60.71251953 45.36456543 60.25 46.125 C57.43060136 50.82913778 54.64470713 55.49841655 52.25 60.4375 C50.57878571 63.87441419 48.82444557 67.23810458 46.9375 70.5625 C46.23947266 71.80193359 46.23947266 71.80193359 45.52734375 73.06640625 C43.72449307 75.34878755 42.76574927 75.44940282 40 76 C36.64480476 70.74043376 33.49662139 65.40828071 30.5 59.9375 C26.45277861 52.6044466 22.36706462 45.29408191 18.25 38 C17.71955078 37.05761475 17.18910156 36.11522949 16.64257812 35.14428711 C13.61416668 29.78360187 10.51282002 24.47823997 7.30639648 19.22192383 C5.68388959 16.46235829 4.26471856 13.63183876 2.8828125 10.74609375 C1.93177705 8.78240013 1.93177705 8.78240013 0.1875 6.25 C-1.23657851 3.55174598 -0.867133 2.80785924 0 0 Z " fill="#FBFBFB" transform="translate(102,162)"/>
<path d="M0 0 C4.20165624 -0.7451213 7.82650399 -1.00017282 12 0 C15.37572578 3.48640532 17.08469082 7.58235181 19 12 C19.72896484 13.53140625 19.72896484 13.53140625 20.47265625 15.09375 C21.46917541 17.19839846 22.44369238 19.31357502 23.3984375 21.4375 C25.24350125 25.5416418 27.14587614 29.61640673 29.0625 33.6875 C29.4020874 34.40953613 29.7416748 35.13157227 30.09155273 35.87548828 C32.64695478 41.29137799 35.27468329 46.66728895 38 52 C38.66 52 39.32 52 40 52 C40.17015625 50.8140625 40.3403125 49.628125 40.515625 48.40625 C41.89696507 39.07444419 43.61501626 30.00338662 46.01953125 20.8828125 C47.39080182 15.60993468 48.37830443 10.2659821 49.38671875 4.9140625 C50 2 50 2 51 0 C54.63 0 58.26 0 62 0 C61.44844583 7.17020426 60.27607569 14.08231554 58.80859375 21.1171875 C58.06732949 24.67668835 57.37470851 28.24226881 56.6875 31.8125 C55.24163869 39.02650642 53.63480172 46.20162442 52 53.375 C51.62621216 55.03366089 51.62621216 55.03366089 51.24487305 56.72583008 C49.80978254 62.95866664 48.13292908 68.96939694 46 75 C42.27369325 75.34693201 38.71899572 75.48039277 35 75 C32.70196248 72.82618073 32.15181105 71.82480356 31 69 C30.60167969 68.15695312 30.20335937 67.31390625 29.79296875 66.4453125 C28.79079835 64.3194965 27.80827708 62.18436458 26.83984375 60.04296875 C24.59615427 55.08503649 22.26881507 50.16719902 19.9375 45.25 C19.52612793 44.37529053 19.11475586 43.50058105 18.69091797 42.59936523 C16.30201063 37.56515448 13.76136825 32.69654392 10.92016602 27.90136719 C10 26 10 26 10 23 C8.68 23 7.36 23 6 23 C5.96261719 23.55945313 5.92523438 24.11890625 5.88671875 24.6953125 C5.36899467 31.009516 4.20360834 37.04092394 2.8203125 43.21875 C1.96194678 47.1754072 1.22031876 51.14161348 0.5 55.125 C-0.7226401 61.83126611 -2.26921481 68.40653259 -4 75 C-7.96 75 -11.92 75 -16 75 C-13.26873563 61.2429348 -10.52021305 47.49149319 -7.59179688 33.77490234 C-6.87620185 30.4195174 -6.16495191 27.06321755 -5.453125 23.70703125 C-4.90645876 21.1379764 -4.35958404 18.56896591 -3.8125 16 C-3.41913452 14.14507935 -3.41913452 14.14507935 -3.01782227 12.25268555 C-2.77088623 11.09679932 -2.5239502 9.94091309 -2.26953125 8.75 C-1.93852417 7.19539063 -1.93852417 7.19539063 -1.60083008 5.609375 C-1 3 -1 3 0 0 Z " fill="#F5F5F5" transform="translate(288,259)"/>
<path d="M0 0 C2.69338573 2.02436486 4.52824684 3.95292587 6 7 C6.4714564 10.72651175 6.36444303 14.2678334 6 18 C-2.66666667 18.16666667 -2.66666667 18.16666667 -5 17 C-6.625 14.0625 -6.625 14.0625 -8 11 C-10.37160148 8.62839852 -11.00621122 8.68016648 -14.25 8.625 C-18.86619678 8.72148 -21.4128197 10.01068309 -25 13 C-25.598125 13.4125 -26.19625 13.825 -26.8125 14.25 C-28.79252821 17.16793631 -29.29110275 20.54473691 -29 24 C-28.02101976 26.77586841 -28.02101976 26.77586841 -26 29 C-23.03292517 29.92793153 -23.03292517 29.92793153 -19.6875 30.125 C-12.3067353 31.03327592 -6.91999421 32.71766551 -2.14453125 38.65234375 C0.69113031 44.46883726 0.0849845 51.62614408 -1.85546875 57.66015625 C-5.35632166 64.62601717 -11.05867898 70.15833212 -18.375 72.9375 C-26.40427117 75.15865577 -34.49545439 74.74487187 -42 71 C-45.16000656 68.3666612 -46.7021256 66.89362319 -48 63 C-48.06802967 61.27204648 -48.08495645 59.54164635 -48.0625 57.8125 C-48.05347656 56.91144531 -48.04445313 56.01039063 -48.03515625 55.08203125 C-48.02355469 54.39496094 -48.01195312 53.70789063 -48 53 C-44.25086226 53.01273052 -40.65890095 53.14227545 -37 54 C-35.0625 57 -35.0625 57 -34 60 C-32.23966377 61.0248753 -32.23966377 61.0248753 -30 61 C-28.88625 61.0825 -27.7725 61.165 -26.625 61.25 C-21.12535464 60.87071411 -18.21364949 59.36924557 -14.5625 55.25 C-12.61832681 51.20611976 -12.63589112 49.25281003 -14 45 C-17.56533816 42.31335334 -20.42364095 41.6411434 -24.8125 41.25 C-31.15693732 40.32688828 -34.94228121 37.93168899 -39 33 C-42.1184455 27.93891633 -41.56679937 22.35590124 -40.60546875 16.6640625 C-38.53225138 9.03997281 -33.44256027 3.16003782 -26.8125 -1 C-18.37675284 -3.99937677 -7.90307549 -4.8038302 0 0 Z " fill="#F4F4F4" transform="translate(403,261)"/>
<path d="M0 0 C14.52 0 29.04 0 44 0 C43 8 43 8 42 10 C36.72 10 31.44 10 26 10 C25.67386719 11.7634375 25.34773438 13.526875 25.01171875 15.34375 C24.10973064 20.2203608 23.20568492 25.09658571 22.30078125 29.97265625 C21.56151747 33.95832141 20.82631699 37.94455811 20.10546875 41.93359375 C18.06403108 53.17403721 15.37044372 64.08618225 12 75 C8.37 75 4.74 75 1 75 C1.59013062 67.93317581 2.66729925 61.19267129 4.21484375 54.27734375 C4.4306459 53.29182022 4.64644806 52.30629669 4.86878967 51.29090881 C5.55305531 48.1719108 6.24513593 45.05470914 6.9375 41.9375 C7.39830475 39.84321293 7.85859558 37.74881271 8.31835938 35.65429688 C9.53881208 30.10135669 10.76713789 24.55019704 12 19 C12.19490021 18.12256134 12.38980042 17.24512268 12.59060669 16.34109497 C13.06024785 14.22736184 13.5301001 12.11367562 14 10 C9.05 10 4.1 10 -1 10 C-0.67 6.7 -0.34 3.4 0 0 Z " fill="#F5F5F5" transform="translate(103,259)"/>
<path d="M0 0 C16.5 0 33 0 50 0 C49 11 49 11 48 12 C46.43452952 12.09326716 44.86487228 12.11745582 43.29663086 12.11352539 C42.29566879 12.11344986 41.29470673 12.11337433 40.26341248 12.11329651 C39.1748848 12.10813522 38.08635712 12.10297394 36.96484375 12.09765625 C35.85645645 12.0962413 34.74806915 12.09482635 33.60609436 12.09336853 C30.04986931 12.08775033 26.49370617 12.07519475 22.9375 12.0625 C20.53320403 12.05748734 18.12890708 12.05292403 15.72460938 12.04882812 C9.81638496 12.03777499 3.9081969 12.02101917 -2 12 C-1.85831863 10.56208484 -1.71148957 9.1246763 -1.5625 7.6875 C-1.48128906 6.88699219 -1.40007812 6.08648437 -1.31640625 5.26171875 C-1 3 -1 3 0 0 Z " fill="#F2F2F2" transform="translate(223,259)"/>
<path d="M0 0 C0.86603851 0.00444122 1.73207703 0.00888245 2.62435913 0.01345825 C3.60522491 0.01360931 4.5860907 0.01376038 5.59667969 0.01391602 C6.6581723 0.02423859 7.71966492 0.03456116 8.81332397 0.04519653 C10.44048843 0.04944138 10.44048843 0.04944138 12.1005249 0.05377197 C15.57521461 0.06499325 19.04964929 0.09010141 22.52426147 0.11550903 C24.87582026 0.12553631 27.22738307 0.1346626 29.57894897 0.14285278 C35.35248517 0.16493897 41.12583005 0.19948213 46.89926147 0.24050903 C46.23926147 4.20050903 45.57926147 8.16050903 44.89926147 12.24050903 C28.39926147 12.24050903 11.89926147 12.24050903 -5.10073853 12.24050903 C-3.921585 0.44897383 -3.921585 0.44897383 0 0 Z " fill="#EDEDED" transform="translate(213.10073852539063,321.7594909667969)"/>
<path d="M0 0 C16.5 0 33 0 50 0 C49 9 49 9 47 12 C44.89926147 12.36076355 44.89926147 12.36076355 42.27490234 12.34057617 C41.29403656 12.34034958 40.31317078 12.34012299 39.30258179 12.33988953 C38.24108917 12.32440567 37.17959656 12.30892181 36.0859375 12.29296875 C35.00116119 12.28872391 33.91638489 12.28447906 32.79873657 12.28010559 C29.32390833 12.263273 25.84965382 12.22561189 22.375 12.1875 C20.02344586 12.17245911 17.67188265 12.15876967 15.3203125 12.14648438 C9.54667827 12.11335454 3.77338011 12.06310982 -2 12 C-1.85904936 10.3745692 -1.71207913 8.74965949 -1.5625 7.125 C-1.48128906 6.22007812 -1.40007812 5.31515625 -1.31640625 4.3828125 C-1 2 -1 2 0 0 Z " fill="#F3F3F3" transform="translate(159,259)"/>
<path d="M0 0 C16.5 0 33 0 50 0 C49 11 49 11 48 12 C46.4651703 12.09319449 44.92607918 12.117458 43.38842773 12.11352539 C42.40748642 12.11344986 41.4265451 12.11337433 40.4158783 12.11329651 C39.3492244 12.10813522 38.2825705 12.10297394 37.18359375 12.09765625 C35.55430687 12.09553383 35.55430687 12.09553383 33.8921051 12.09336853 C30.40720925 12.08775048 26.92237658 12.07519492 23.4375 12.0625 C21.08138113 12.05748733 18.72526126 12.05292402 16.36914062 12.04882812 C10.57940536 12.03777519 4.78970719 12.02101951 -1 12 C-1.07329796 7.60212211 -1.07396066 4.29584263 0 0 Z " fill="#EEEEEE" transform="translate(145,322)"/>
<path d="M0 0 C1.14250465 0.00333092 1.14250465 0.00333092 2.30809021 0.00672913 C3.16890701 0.00680466 4.02972382 0.00688019 4.91662598 0.00695801 C5.8520372 0.01211929 6.78744843 0.01728058 7.75120544 0.02259827 C8.70422043 0.02401321 9.65723541 0.02542816 10.63912964 0.02688599 C13.69605085 0.032503 16.75289996 0.04505836 19.80979919 0.05775452 C21.87685543 0.06276733 23.94391281 0.06733061 26.01097107 0.07142639 C31.08977507 0.08247795 36.16852489 0.09975397 41.24729919 0.12025452 C41.10687042 1.76655779 40.9598059 3.41229631 40.80979919 5.05775452 C40.72858826 5.97427795 40.64737732 6.89080139 40.56370544 7.83509827 C40.24729919 10.12025452 40.24729919 10.12025452 39.24729919 11.12025452 C37.86569805 11.21303782 36.47941882 11.23772494 35.0947113 11.23377991 C34.21387375 11.23370438 33.33303619 11.23362885 32.42550659 11.23355103 C31.46822159 11.22838974 30.51093658 11.22322845 29.52464294 11.21791077 C28.54943192 11.21649582 27.57422089 11.21508087 26.56945801 11.21362305 C23.44120777 11.20800584 20.31302796 11.19545044 17.18479919 11.18275452 C15.06956585 11.17774173 12.95433139 11.17317844 10.83909607 11.16908264 C5.64180623 11.15803083 0.44455774 11.14127598 -4.75270081 11.12025452 C-4.44487584 9.47354039 -4.13130846 7.82789875 -3.81520081 6.18275452 C-3.64117737 5.26623108 -3.46715393 4.34970764 -3.28785706 3.40541077 C-2.53101868 0.17365567 -2.53101868 0.17365567 0 0 Z " fill="#F8F8F8" transform="translate(218.75270080566406,290.87974548339844)"/>
<path d="M0 0 C1.14250465 0.00333092 1.14250465 0.00333092 2.30809021 0.00672913 C3.16890701 0.00680466 4.02972382 0.00688019 4.91662598 0.00695801 C5.8520372 0.01211929 6.78744843 0.01728058 7.75120544 0.02259827 C8.70422043 0.02401321 9.65723541 0.02542816 10.63912964 0.02688599 C13.69605085 0.032503 16.75289996 0.04505836 19.80979919 0.05775452 C21.87685543 0.06276733 23.94391281 0.06733061 26.01097107 0.07142639 C31.08977507 0.08247795 36.16852489 0.09975397 41.24729919 0.12025452 C41.37229919 7.74525452 41.37229919 7.74525452 40.24729919 11.12025452 C25.72729919 11.12025452 11.20729919 11.12025452 -3.75270081 11.12025452 C-2.65891845 0.182431 -2.65891845 0.182431 0 0 Z " fill="#F8F8F8" transform="translate(153.75270080566406,290.87974548339844)"/>
<path d="M0 0 C0.66 0 1.32 0 2 0 C2 23.1 2 46.2 2 70 C1.67 70 1.34 70 1 70 C1 48.55 1 27.1 1 5 C-1.475 6.485 -1.475 6.485 -4 8 C-2.87548273 5.0280615 -1.77706209 2.66559313 0 0 Z " fill="#151515" transform="translate(185,167)"/>
<path d="M0 0 C0.33 0 0.66 0 1 0 C0.85562749 6.92988052 -2.22255343 10.19760593 -7 15 C-7.99 14.67 -8.98 14.34 -10 14 C-8.43810398 10.50004453 -6.33666309 7.72827143 -3.9375 4.75 C-2.86822266 3.41195313 -2.86822266 3.41195313 -1.77734375 2.046875 C-0.89755859 1.03367187 -0.89755859 1.03367187 0 0 Z " fill="#D5D5D3" transform="translate(403,352)"/>
<path d="M0 0 C0.66 0 1.32 0 2 0 C2 10.23 2 20.46 2 31 C1.67 31 1.34 31 1 31 C0.67 22.75 0.34 14.5 0 6 C-0.66 7.32 -1.32 8.64 -2 10 C-3 8 -3 8 -2.44140625 6.0546875 C-2.15136719 5.33539063 -1.86132812 4.61609375 -1.5625 3.875 C-1.27503906 3.15054688 -0.98757813 2.42609375 -0.69140625 1.6796875 C-0.46324219 1.12539062 -0.23507812 0.57109375 0 0 Z " fill="#404040" transform="translate(269,206)"/>
<path d="M0 0 C0 0.99 0 1.98 0 3 C-0.66 3 -1.32 3 -2 3 C-2.33 3.66 -2.66 4.32 -3 5 C-3.66 5 -4.32 5 -5 5 C-5.99 5.66 -6.98 6.32 -8 7 C-7.34 7.66 -6.68 8.32 -6 9 C-9.8503105 11.56687367 -11.58569763 10.83288724 -16 10 C-4.07692308 0 -4.07692308 0 0 0 Z " fill="#E0DFDF" transform="translate(362,393)"/>
<path d="M0 0 C1 2 1 2 0.51171875 3.91015625 C0.23972656 4.62042969 -0.03226562 5.33070313 -0.3125 6.0625 C-0.57675781 6.77535156 -0.84101563 7.48820312 -1.11328125 8.22265625 C-2 10 -2 10 -4 11 C-4.33 11.66 -4.66 12.32 -5 13 C-5.99 12.67 -6.98 12.34 -8 12 C-7.05208333 10.578125 -6.10416667 9.15625 -5.15625 7.734375 C-4.7746875 7.16203125 -4.393125 6.5896875 -4 6 C-2 3 -2 3 0 0 Z " fill="#CBCBCB" transform="translate(413,338)"/>
<path d="M0 0 C0.33 0 0.66 0 1 0 C0.6875 3.375 0.6875 3.375 0 7 C-0.99 7.66 -1.98 8.32 -3 9 C-3 8.34 -3 7.68 -3 7 C-3.66 6.67 -4.32 6.34 -5 6 C-3.35830472 3.97945196 -1.69088222 1.97956942 0 0 Z " fill="#C9C9C7" transform="translate(403,352)"/>
<path d="M0 0 C0.33 0.66 0.66 1.32 1 2 C0.06553465 4.03144641 -0.93224776 6.03533587 -2 8 C-3.65 7.67 -5.3 7.34 -7 7 C-4.66666667 4.66666667 -2.33333333 2.33333333 0 0 Z " fill="#DCDBD9" transform="translate(392,366)"/>
<path d="M0 0 C0 0.99 0 1.98 0 3 C-0.66 3 -1.32 3 -2 3 C-2.33 3.66 -2.66 4.32 -3 5 C-3.66 5 -4.32 5 -5 5 C-6.33783393 5.31478446 -7.67203709 5.64587656 -9 6 C-3.2 0 -3.2 0 0 0 Z " fill="#D0D0D0" transform="translate(362,393)"/>
</svg>
